<svg width="40" height="46" viewBox="0 0 40 46" fill="none" xmlns="http://www.w3.org/2000/svg">
<path d="M19.9638 3.39415L20 3.43219L20.0362 3.39415C20.0672 3.36157 20.0989 3.32925 20.1308 3.29664L20.1308 3.29663L20.1311 3.29642C20.1627 3.26412 20.1946 3.23154 20.226 3.19861C22.0113 1.42206 24.4343 0.421399 26.9565 0.421399H30.4348C35.6909 0.421399 39.95 4.66384 39.95 9.89063V25.4676C39.95 36.4336 31.0196 45.3214 20 45.3214C8.98044 45.3214 0.05 36.4336 0.05 25.4676V9.89063C0.05 4.66384 4.30914 0.421399 9.56522 0.421399H13.0435C15.5657 0.421399 17.9887 1.42206 19.7741 3.1986C19.8054 3.23154 19.8373 3.26412 19.869 3.29642L19.8692 3.29663L19.8692 3.29664C19.9011 3.32925 19.9328 3.36157 19.9638 3.39415Z" fill="#CCD6A6" stroke="#CCD6A6" stroke-width="0.1"/>
</svg>
